HIERARCHY
ROOT hip
{
	OFFSET 0.000000 0.000000 0.000000
	CHANNELS 6 Xposition Yposition Zposition Xrotation Zrotation Yrotation 
	JOINT abdomen
	{
		OFFSET 0.000000 3.422050 0.000000
		CHANNELS 3 Xrotation Zrotation Yrotation 
		JOINT chest
		{
			OFFSET 0.000000 8.486693 -0.684411
			CHANNELS 3 Xrotation Zrotation Yrotation 
			JOINT neck
			{
				OFFSET 0.000000 10.266162 -0.273764
				CHANNELS 3 Xrotation Zrotation Yrotation 
				JOINT head
				{
					OFFSET 0.000000 3.148285 0.000000
					CHANNELS 3 Xrotation Zrotation Yrotation 
					End Site
					{
						OFFSET 0.000000 3.148289 0.000000
					}
				}
			}
			JOINT lCollar
			{
				OFFSET 3.422053 6.707223 -0.821293
				CHANNELS 3 Yrotation Zrotation Xrotation 
				JOINT lShldr
				{
					OFFSET 3.285171 0.000000 0.000000
					CHANNELS 3 Zrotation Yrotation Xrotation 
					JOINT lForeArm
					{
						OFFSET 10.129278 0.000000 0.000000
						CHANNELS 3 Yrotation Zrotation Xrotation 
						JOINT lHand
						{
							OFFSET 8.486692 0.000000 0.000000
							CHANNELS 3 Zrotation Yrotation Xrotation 
							End Site
							{
								OFFSET 4.106464 0.000000 0.000000
							}
						}
					}
				}
			}
			JOINT rCollar
			{
				OFFSET -3.558935 6.707223 -0.821293
				CHANNELS 3 Yrotation Zrotation Xrotation 
				JOINT rShldr
				{
					OFFSET -3.148289 0.000000 0.000000
					CHANNELS 3 Zrotation Yrotation Xrotation 
					JOINT rForeArm
					{
						OFFSET -10.266159 0.000000 0.000000
						CHANNELS 3 Yrotation Zrotation Xrotation 
						JOINT rHand
						{
							OFFSET -8.349810 0.000000 0.000000
							CHANNELS 3 Zrotation Yrotation Xrotation 
							End Site
							{
								OFFSET -4.106464 0.000000 0.000000
							}
						}
					}
				}
			}
		}
	}
	JOINT lThigh
	{
		OFFSET 5.338403 -1.642589 1.368821
		CHANNELS 3 Xrotation Zrotation Yrotation 
		JOINT lShin
		{
			OFFSET -2.053232 -20.121670 0.000000
			CHANNELS 3 Xrotation Zrotation Yrotation 
			JOINT lFoot
			{
				OFFSET 0.000000 -19.300380 -1.231939
				CHANNELS 3 Xrotation Yrotation Zrotation 
				End Site
				{
					OFFSET 0.000000 -2.463878 4.653993
				}
			}
		}
	}
	JOINT rThigh
	{
		OFFSET -5.338403 -1.642589 1.368821
		CHANNELS 3 Xrotation Zrotation Yrotation 
		JOINT rShin
		{
			OFFSET 2.053232 -20.121670 0.000000
			CHANNELS 3 Xrotation Zrotation Yrotation 
			JOINT rFoot
			{
				OFFSET 0.000000 -19.300380 -1.231939
				CHANNELS 3 Xrotation Yrotation Zrotation 
				End Site
				{
					OFFSET 0.000000 -2.463878 4.653993
				}
			}
		}
	}
}
MOTION
Frames: 16
Frame Time: 0.033264
-0.928161 6.951969 -5.169430 -28.026499 -11.566954 32.016975 -3.422714 -4.261230 -5.040237 33.584007 3.544558 0.052157 -23.246901 1.077304 11.764142 4.106178 17.493748 -2.970865 8.172257 11.852853 -13.694441 -37.001282 -18.000301 30.000408 -77.080276 20.246063 24.174450 19.473597 -10.852820 -51.948734 15.340883 -2.875118 -8.472438 73.418633 4.960399 5.962583 82.290512 -11.895090 5.935291 31.852673 -8.714740 0.848210 -72.514069 -7.451228 48.944557 97.641243 -2.919518 -0.004121 50.375530 22.247396 -27.331192 -88.970963 6.479718 43.962318 116.432076 -2.159384 0.973999 41.215679 24.061747 27.189453 
-0.928161 6.951969 -5.169430 -28.026497 -11.566952 32.016972 -3.422714 -4.261230 -5.040237 33.584007 3.544558 0.052157 -23.114431 1.103575 11.681927 4.106439 17.493847 -2.971083 8.172257 11.852853 -13.694441 -37.001282 -18.000301 30.000408 -77.080276 20.246063 24.174450 19.209869 -10.777834 -51.921928 15.340883 -2.875118 -8.472438 73.418663 4.960472 5.962581 82.419205 -11.895078 5.935305 32.063301 -8.714718 0.848204 -72.514069 -7.451225 48.944557 97.641243 -2.919518 -0.004121 50.375530 22.247396 -27.331192 -88.970963 6.479720 43.962315 116.432068 -2.159383 0.973999 41.215679 24.061747 27.189453 
-0.928161 6.951969 -5.169430 -28.026497 -11.566952 32.016972 -3.422714 -4.261229 -5.040237 33.584007 3.544558 0.052157 -22.981974 1.130040 11.599756 4.106700 17.493946 -2.971300 8.172257 11.852853 -13.694441 -37.001282 -18.000301 30.000408 -77.080276 20.246063 24.174450 18.946018 -10.702657 -51.895447 15.340883 -2.875118 -8.472438 73.418671 4.960546 5.962579 83.310219 -11.895107 5.935285 32.273853 -8.714698 0.848198 -72.514069 -7.451225 48.944557 97.641243 -2.919518 -0.004121 50.375530 22.247396 -27.331192 -88.970963 6.479720 43.962315 116.432068 -2.159383 0.973999 41.215679 24.061747 27.189453 
-0.928161 6.951969 -5.169430 -28.026497 -11.566952 32.016972 -3.422714 -4.261230 -5.040237 33.584007 3.544558 0.052157 -22.849529 1.156701 11.517632 4.106960 17.494045 -2.971518 8.172257 11.852853 -13.694441 -37.001282 -18.000301 30.000408 -77.080276 20.246063 24.174450 18.682058 -10.627307 -51.869320 15.340883 -2.875118 -8.472438 73.418694 4.960619 5.962578 84.205025 -11.895138 5.935266 32.484322 -8.714676 0.848192 -72.514069 -7.451225 48.944557 97.641243 -2.919518 -0.004121 50.375530 22.247396 -27.331192 -88.970963 6.479720 43.962315 116.432068 -2.159383 0.973999 41.215679 24.061747 27.189453 
-0.928161 6.951969 -5.169430 -28.026497 -11.566952 32.016972 -3.422714 -4.261230 -5.040237 33.584007 3.544558 0.052157 -22.717100 1.183556 11.435555 4.107222 17.494146 -2.971736 8.172257 11.852853 -13.694441 -37.001282 -18.000301 30.000408 -77.080276 20.246063 24.174450 18.417973 -10.551771 -51.843510 15.340883 -2.875118 -8.472438 73.418716 4.960694 5.962577 85.103508 -11.895166 5.935246 32.694706 -8.714656 0.848186 -72.514069 -7.451225 48.944557 97.641243 -2.919518 -0.004121 50.375530 22.247396 -27.331192 -88.970963 6.479720 43.962315 116.432068 -2.159383 0.973999 41.215679 24.061747 27.189453 
-0.928161 6.951969 -5.169430 -28.026497 -11.566952 32.016972 -3.422714 -4.261230 -5.040237 33.584007 3.544558 0.052157 -22.584681 1.210605 11.353523 4.107482 17.494246 -2.971953 8.172257 11.852853 -13.694441 -37.001282 -18.000301 30.000408 -77.080276 20.246063 24.174450 18.153782 -10.476063 -51.818058 15.340883 -2.875118 -8.472438 73.418739 4.960767 5.962575 86.005615 -11.895196 5.935226 32.905006 -8.714632 0.848180 -72.514069 -7.451225 48.944557 97.641243 -2.919518 -0.004121 50.375530 22.247396 -27.331192 -88.970963 6.479720 43.962315 116.432068 -2.159383 0.973999 41.215679 24.061747 27.189453 
-0.928161 6.951969 -5.169430 -28.026497 -11.566952 32.016972 -3.422714 -4.261229 -5.040237 33.584007 3.544558 0.052157 -22.452284 1.237849 11.271542 4.107743 17.494347 -2.972171 8.172257 11.852853 -13.694441 -37.001282 -18.000301 30.000408 -77.080276 20.246063 24.174450 17.889481 -10.400181 -51.792938 15.340883 -2.875118 -8.472438 73.418762 4.960842 5.962574 86.911247 -11.895227 5.935209 33.115223 -8.714613 0.848174 -72.514069 -7.451225 48.944557 97.641243 -2.919518 -0.004121 50.375530 22.247396 -27.331192 -88.970963 6.479720 43.962315 116.432068 -2.159383 0.973999 41.215679 24.061747 27.189453 
-0.928161 6.951969 -5.169430 -28.026497 -11.566952 32.016972 -3.422714 -4.261230 -5.040237 33.584007 3.544558 0.052157 -22.319895 1.265286 11.189607 4.108004 17.494448 -2.972388 8.172257 11.852853 -13.694441 -37.001282 -18.000301 30.000408 -77.080276 20.246063 24.174450 17.625069 -10.324123 -51.768169 15.340883 -2.875118 -8.472438 73.418777 4.960917 5.962573 87.820297 -11.895257 5.935190 33.325344 -8.714591 0.848168 -72.514069 -7.451225 48.944557 97.641243 -2.919518 -0.004121 50.375530 22.247396 -27.331192 -88.970963 6.479720 43.962315 116.432068 -2.159383 0.973999 41.215679 24.061747 27.189453 
-0.928161 6.951969 -5.169430 -28.026497 -11.566952 32.016972 -3.422714 -4.261230 -5.040237 33.584007 3.544558 0.052157 -22.187523 1.292918 11.107720 4.108265 17.494547 -2.972606 8.172257 11.852853 -13.694441 -37.001282 -18.000301 30.000408 -77.080276 20.246063 24.174450 17.360554 -10.247896 -51.743744 15.340883 -2.875118 -8.472438 73.418800 4.960990 5.962571 88.732689 -11.895288 5.935173 33.535381 -8.714569 0.848162 -72.514069 -7.451225 48.944557 97.641243 -2.919518 -0.004121 50.375530 22.247396 -27.331192 -88.970963 6.479720 43.962315 116.432068 -2.159383 0.973999 41.215679 24.061747 27.189453 
-0.928161 6.951969 -5.169430 -28.026497 -11.566952 32.016972 -3.422714 -4.261230 -5.040237 33.584007 3.544558 0.052157 -22.055170 1.320743 11.025886 4.108526 17.494646 -2.972823 8.172257 11.852853 -13.694441 -37.001282 -18.000301 30.000408 -77.080276 20.246063 24.174450 17.095932 -10.171502 -51.719654 15.340883 -2.875118 -8.472438 73.418816 4.961064 5.962569 89.648308 -11.895319 5.935155 33.745331 -8.714549 0.848157 -72.514069 -7.451225 48.944557 97.641243 -2.919518 -0.004121 50.375530 22.247396 -27.331192 -88.970963 6.479720 43.962315 116.432068 -2.159383 0.973999 41.215679 24.061747 27.189453 
-0.928161 6.951969 -5.169430 -28.026497 -11.566952 32.016972 -3.422714 -4.261229 -5.040237 33.584007 3.544558 0.052157 -21.922832 1.348761 10.944100 4.108786 17.494743 -2.973040 8.172257 11.852853 -13.694441 -37.001282 -18.000301 30.000408 -77.080276 20.246063 24.174450 16.831207 -10.094939 -51.695911 15.340883 -2.875118 -8.472438 73.418839 4.961137 5.962567 90.567070 -11.895350 5.935139 33.955181 -8.714526 0.848151 -72.514069 -7.451225 48.944557 97.641243 -2.919518 -0.004121 50.375530 22.247396 -27.331192 -88.970963 6.479720 43.962315 116.432068 -2.159383 0.973999 41.215679 24.061747 27.189453 
-0.928161 6.951969 -5.169430 -28.026497 -11.566953 32.016972 -3.422714 -4.261230 -5.040237 33.584007 3.544558 0.052157 -21.790518 1.376973 10.862369 4.109047 17.494844 -2.973258 8.172257 11.852853 -13.694441 -37.001282 -18.000301 30.000408 -77.080276 20.246063 24.174450 16.566381 -10.018216 -51.672523 15.340883 -2.875118 -8.472438 73.418869 4.961212 5.962566 91.488838 -11.895383 5.935121 34.164955 -8.714505 0.848146 -72.514069 -7.451225 48.944557 97.641243 -2.919518 -0.004121 50.375530 22.247396 -27.331192 -88.970963 6.479720 43.962315 116.432068 -2.159383 0.973999 41.215679 24.061747 27.189453 
-0.928161 6.951969 -5.169430 -28.026497 -11.566953 32.016972 -3.422714 -4.261230 -5.040237 33.584007 3.544558 0.052157 -21.658222 1.405377 10.780688 4.109308 17.494946 -2.973476 8.172257 11.852853 -13.694441 -37.001282 -18.000301 30.000408 -77.080276 20.246063 24.174450 16.301460 -9.941329 -51.649483 15.340883 -2.875118 -8.472438 73.418884 4.961286 5.962565 92.413536 -11.895414 5.935103 34.374615 -8.714483 0.848140 -72.514069 -7.451225 48.944557 97.641243 -2.919518 -0.004121 50.375530 22.247396 -27.331192 -88.970963 6.479720 43.962315 116.432068 -2.159383 0.973999 41.215679 24.061747 27.189453 
-0.928161 6.951969 -5.169430 -28.026497 -11.566953 32.016972 -3.422714 -4.261230 -5.040237 33.584007 3.544558 0.052157 -21.525934 1.433973 10.699057 4.109569 17.495043 -2.973693 8.172257 11.852853 -13.694441 -37.001282 -18.000301 30.000408 -77.080276 20.246063 24.174450 16.036446 -9.864285 -51.626801 15.340883 -2.875118 -8.472438 73.418900 4.961360 5.962563 93.341072 -11.895448 5.935089 34.584190 -8.714461 0.848135 -72.514069 -7.451225 48.944557 97.641243 -2.919518 -0.004121 50.375530 22.247396 -27.331192 -88.970963 6.479720 43.962315 116.432068 -2.159383 0.973999 41.215679 24.061747 27.189453 
-0.928161 6.951969 -5.169430 -28.026497 -11.566952 32.016972 -3.422714 -4.261229 -5.040237 33.584007 3.544558 0.052157 -21.393675 1.462762 10.617482 4.109830 17.495144 -2.973911 8.172257 11.852853 -13.694441 -37.001282 -18.000303 30.000408 -77.080276 20.246063 24.174450 15.771338 -9.787084 -51.604462 15.340883 -2.875118 -8.472438 73.418930 4.961434 5.962562 94.271294 -11.895479 5.935074 34.793667 -8.714441 0.848130 -72.514069 -7.451225 48.944557 97.641243 -2.919518 -0.004121 50.375530 22.247396 -27.331192 -88.970963 6.479720 43.962315 116.432068 -2.159383 0.973999 41.215679 24.061747 27.189453 
-0.928161 6.951969 -5.169430 -28.026497 -11.566952 32.016972 -3.422714 -4.261230 -5.040237 33.584007 3.544558 0.052157 -21.261444 1.491744 10.535965 4.110091 17.495243 -2.974129 8.172257 11.852853 -13.694441 -37.001282 -18.000301 30.000408 -77.080276 20.246063 24.174450 15.506135 -9.709727 -51.582474 15.340883 -2.875118 -8.472438 73.418938 4.961507 5.962560 95.204147 -11.895514 5.935061 35.003052 -8.714420 0.848125 -72.514069 -7.451225 48.944557 97.641243 -2.919518 -0.004121 50.375530 22.247396 -27.331192 -88.970963 6.479720 43.962315 116.432068 -2.159383 0.973999 41.215679 24.061747 27.189453 
